####
#
# OBJ File Generated by Meshlab
#
####
# Object bunny128v2.obj
#
# Vertices: 59
# Faces: 118
#
####
vn -0.423974 5.377485 -0.728340
v -0.613852 0.506353 0.053107
vn -5.592827 -0.610399 0.759634
v -0.893256 -0.119139 0.147305
vn -3.503466 3.092444 1.207927
v -0.873233 0.403492 0.374129
vn 1.335523 -3.685252 2.383264
v 0.376342 -0.897789 0.472215
vn 1.394153 -0.453388 5.037372
v 0.275973 -0.510433 0.686344
vn 1.712960 3.416110 4.294588
v -0.326108 0.087352 0.343619
vn -1.398777 -0.072734 5.737930
v -0.043480 -0.704178 0.591945
vn -2.750534 0.019187 4.935696
v -0.203951 -0.625342 0.448701
vn 3.937155 1.833926 2.268278
v 0.666075 -0.130910 0.353566
vn -1.814472 1.492339 5.464849
v -0.233038 -0.208097 0.521603
vn 5.128041 1.818093 -1.223834
v 0.759069 -0.388663 0.044215
vn 0.794957 3.694587 3.750095
v 0.246665 0.124609 0.448233
vn 0.965672 -0.328345 -4.526605
v -0.607600 0.350633 -0.107384
vn -1.649832 1.295125 4.060899
v -0.086957 -0.226999 0.674457
vn 0.336300 0.871473 0.387439
v -0.131532 0.861750 -0.108644
vn 3.094327 -0.243254 4.976259
v 0.638676 -0.604554 0.385886
vn 0.213129 0.219619 -0.252925
v -0.003778 0.841721 -0.317179
vn -1.400710 1.977679 -5.422245
v -0.341520 -0.124505 -0.285833
vn 2.359103 1.299601 3.332146
v -0.441860 0.506952 0.139294
vn 3.118980 -1.007463 -1.445656
v 0.847356 -0.671364 -0.029567
vn 1.369240 -5.345168 -0.890238
v 0.414692 -0.912902 -0.007099
vn 1.748379 0.081457 1.948975
v 0.802544 -0.625280 0.379072
vn 0.455034 0.697554 -0.872488
v -0.591190 0.739758 -0.675609
vn 0.752420 -0.230941 -0.049472
v 0.036367 0.616609 -0.176450
vn -1.596367 -1.625840 4.705988
v -0.702320 -0.050322 0.462497
vn -4.356552 0.173618 -2.066163
v -0.925504 0.096686 0.040107
vn -2.818959 -1.518438 1.407017
v -0.939707 0.051524 0.511630
vn 2.558317 1.714030 -4.690076
v 0.422921 -0.206946 -0.295346
vn 1.125675 3.328039 1.677314
v -0.562516 0.531187 0.367227
vn 2.376589 5.022691 -0.163745
v -0.305963 0.171522 0.111922
vn -3.388672 -1.555727 4.296231
v -0.417271 -0.628335 0.360382
vn 1.394992 4.737769 0.967239
v 0.321880 0.236632 0.232449
vn 3.401427 3.430187 -1.848088
v 0.516448 0.092360 -0.026034
vn -0.269527 0.109161 2.999839
v -0.761963 0.177828 0.680876
vn -1.478169 -0.599742 -0.565768
v -0.705349 -0.920624 -0.058476
vn -2.537092 -0.726061 3.455582
v -0.747433 -0.285599 0.505507
vn -4.182469 -1.059354 -2.617717
v -0.522532 -0.654053 0.018296
vn 0.124550 -0.783625 -0.982273
v -0.622226 0.516861 -0.665538
vn -1.410676 1.610198 -0.254738
v -0.733708 0.753358 -0.531002
vn -4.098118 2.178155 -1.076036
v -0.762706 0.463577 -0.033866
vn 3.056598 -0.971067 -4.705507
v 0.520906 -0.583596 -0.262305
vn -3.213249 0.834139 -3.736051
v -0.282389 -0.694124 -0.125739
vn 0.592927 4.241576 -3.088952
v 0.201068 0.174229 -0.127825
vn 3.613588 0.481475 -2.784485
v -0.432526 0.379488 0.010753
vn -0.090154 2.786470 -5.178615
v -0.467591 0.114340 -0.122819
vn -2.727558 -1.238554 -3.516087
v -0.732598 -0.340834 -0.192824
vn -3.095073 -1.826529 -4.931843
v -0.344142 -0.356190 -0.258610
vn -1.369112 -0.763353 -5.540673
v -0.118676 -0.751513 -0.333591
vn -0.961675 0.230156 -4.101377
v -0.118255 -0.389531 -0.500596
vn 0.090917 -6.234632 0.239214
v 0.008759 -0.863834 0.080429
vn 1.516773 -3.362475 -2.258264
v 0.342840 -0.904459 -0.230166
vn -1.622431 -1.967332 2.307255
v -0.435481 -0.905056 0.439065
vn 2.198361 -4.734890 1.177551
v 0.542044 -0.891531 0.263767
vn -0.604680 -1.261990 2.293109
v -0.148611 -0.901495 0.644548
vn -0.009424 -3.927784 -2.611555
v 0.063188 -0.848954 0.445190
vn -3.713633 -3.159982 0.316017
v -0.782669 -0.522354 0.168517
vn -0.830994 -0.733321 -1.828077
v -0.341934 -0.890632 -0.345768
vn -2.401582 -1.483827 1.169865
v -0.610071 -0.913905 0.246509
vn 0.583592 -6.198455 0.017668
v -0.332839 -0.920787 0.078783
# 59 vertices, 0 vertices normals
f 23//23 39//39 1//1
f 32//32 30//30 12//12
f 3//3 34//34 29//29
f 5//5 12//12 14//14
f 30//30 6//6 12//12
f 20//20 11//11 22//22
f 7//7 4//4 5//5
f 10//10 36//36 8//8
f 52//52 8//8 31//31
f 10//10 25//25 36//36
f 22//22 16//16 53//53
f 10//10 6//6 25//25
f 12//12 6//6 10//10
f 27//27 3//3 26//26
f 7//7 14//14 10//10
f 43//43 32//32 33//33
f 7//7 5//5 14//14
f 57//57 35//35 42//42
f 6//6 29//29 34//34
f 6//6 34//34 25//25
f 9//9 12//12 5//5
f 24//24 17//17 19//19
f 54//54 7//7 52//52
f 16//16 9//9 5//5
f 28//28 33//33 11//11
f 20//20 53//53 21//21
f 16//16 5//5 4//4
f 54//54 4//4 7//7
f 44//44 24//24 19//19
f 17//17 15//15 19//19
f 23//23 1//1 13//13
f 3//3 40//40 26//26
f 51//51 41//41 21//21
f 4//4 53//53 16//16
f 37//37 58//58 31//31
f 11//11 9//9 16//16
f 38//38 23//23 13//13
f 44//44 29//29 30//30
f 29//29 44//44 19//19
f 53//53 20//20 22//22
f 11//11 16//16 22//22
f 40//40 29//29 1//1
f 1//1 29//29 19//19
f 39//39 40//40 1//1
f 11//11 33//33 9//9
f 40//40 3//3 29//29
f 32//32 12//12 9//9
f 33//33 32//32 9//9
f 30//30 29//29 6//6
f 8//8 52//52 7//7
f 37//37 46//46 47//47
f 31//31 58//58 52//52
f 14//14 12//12 10//10
f 58//58 37//37 35//35
f 13//13 26//26 40//40
f 1//1 19//19 15//15
f 34//34 3//3 27//27
f 38//38 39//39 23//23
f 40//40 39//39 38//38
f 42//42 49//49 48//48
f 57//57 42//42 48//48
f 42//42 47//47 49//49
f 36//36 2//2 56//56
f 15//15 17//17 1//1
f 36//36 25//25 2//2
f 37//37 56//56 46//46
f 37//37 42//42 35//35
f 56//56 2//2 46//46
f 2//2 26//26 46//46
f 47//47 18//18 49//49
f 10//10 8//8 7//7
f 18//18 28//28 49//49
f 1//1 44//44 13//13
f 30//30 43//43 45//45
f 45//45 43//43 18//18
f 44//44 45//45 13//13
f 41//41 28//28 11//11
f 32//32 43//43 30//30
f 33//33 28//28 43//43
f 18//18 26//26 45//45
f 20//20 41//41 11//11
f 26//26 13//13 45//45
f 20//20 21//21 41//41
f 24//24 44//44 17//17
f 51//51 49//49 41//41
f 13//13 40//40 38//38
f 2//2 25//25 26//26
f 49//49 28//28 41//41
f 51//51 48//48 49//49
f 44//44 1//1 17//17
f 51//51 57//57 48//48
f 46//46 18//18 47//47
f 18//18 43//43 28//28
f 46//46 26//26 18//18
f 50//50 52//52 59//59
f 42//42 37//37 47//47
f 44//44 30//30 45//45
f 25//25 27//27 26//26
f 21//21 50//50 51//51
f 25//25 34//34 27//27
f 55//55 52//52 50//50
f 50//50 4//4 55//55
f 54//54 52//52 4//4
f 37//37 31//31 56//56
f 31//31 36//36 56//56
f 57//57 59//59 35//35
f 58//58 35//35 59//59
f 31//31 8//8 36//36
f 51//51 50//50 57//57
f 52//52 58//58 59//59
f 59//59 57//57 50//50
f 4//4 52//52 59//59
f 50//50 21//21 53//53
f 50//50 53//53 4//4
f 59//59 50//50 4//4
f 52//52 55//55 4//4
f 59//59 52//52 4//4
f 59//59 4//4 50//50
# 118 faces, 0 coords texture
# End of File
